<svg fill="none" height="512" viewBox="0 0 512 512" width="512" xmlns="http://www.w3.org/2000/svg"><g fill="#000"><path d="m496 64h-368c-2.122 0-4.157.8429-5.657 2.3431-1.5 1.5003-2.343 3.5352-2.343 5.6569v132.46l-27.31 27.54h-76.69c-2.1217 0-4.1566.843-5.6569 2.343-1.50025 1.5-2.3431 3.535-2.3431 5.657v136c0 2.122.84285 4.157 2.3431 5.657 1.5003 1.5 3.5352 2.343 5.6569 2.343h76.69l13.65 13.66c1.502 1.499 3.538 2.341 5.66 2.34h8v40c0 2.122.843 4.157 2.343 5.657s3.535 2.343 5.657 2.343h368c2.122 0 4.157-.843 5.657-2.343s2.343-3.535 2.343-5.657v-368c0-2.1217-.843-4.1566-2.343-5.6569-1.5-1.5002-3.535-2.3431-5.657-2.3431zm-232 16h96v138.21l-44.03-25.16c-1.21-.688-2.578-1.05-3.97-1.05s-2.76.362-3.97 1.05l-44.03 25.16zm-240 168h72c2.1222.001 4.158-.841 5.66-2.34l18.34-18.39v17.19l-27.31 27.54h-68.69zm91.31 136-13.65-13.66c-1.502-1.499-3.5378-2.341-5.66-2.34h-72v-80h72c2.1222.001 4.158-.841 5.66-2.34l53.34-53.97c1.5-1.499 3.534-2.341 5.655-2.341s4.155.842 5.655 2.341c.744.741 1.335 1.621 1.738 2.59s.611 2.008.612 3.058-.205 2.089-.607 3.059c-.401.97-.99 1.851-1.733 2.593-.05.06-.1.11-.15.16l-14.55 15.34c-1.078 1.134-1.799 2.56-2.075 4.1-.276 1.541-.093 3.128.524 4.566s1.643 2.663 2.949 3.524c1.307.861 2.837 1.32 4.402 1.32h90.58c2.122 0 4.157.843 5.657 2.343s2.343 3.535 2.343 5.657-.843 4.157-2.343 5.657-3.535 2.343-5.657 2.343h-64c-2.122 0-4.157.843-5.657 2.343s-2.343 3.535-2.343 5.657.843 4.157 2.343 5.657 3.535 2.343 5.657 2.343h96c2.122 0 4.157.843 5.657 2.343s2.343 3.535 2.343 5.657-.843 4.157-2.343 5.657-3.535 2.343-5.657 2.343h-96c-2.122 0-4.157.843-5.657 2.343s-2.343 3.535-2.343 5.657.843 4.157 2.343 5.657 3.535 2.343 5.657 2.343h64c2.122 0 4.157.843 5.657 2.343s2.343 3.535 2.343 5.657-.843 4.157-2.343 5.657-3.535 2.343-5.657 2.343h-64c-2.122 0-4.157.843-5.657 2.343s-2.343 3.535-2.343 5.657.843 4.157 2.343 5.657 3.535 2.343 5.657 2.343h48c2.122 0 4.157.843 5.657 2.343s2.343 3.535 2.343 5.657-.843 4.157-2.343 5.657-3.535 2.343-5.657 2.343zm372.69 48h-352v-32h96c3.916.001 7.772-.956 11.233-2.788 3.46-1.833 6.42-4.484 8.62-7.723 2.201-3.239 3.575-6.967 4.003-10.859s-.102-7.83-1.546-11.47c3.184-.869 6.156-2.385 8.728-4.454s4.69-4.646 6.221-7.57c1.532-2.924 2.444-6.133 2.68-9.425.236-3.293-.21-6.598-1.309-9.711h9.37c6.365 0 12.47-2.529 16.971-7.029 4.5-4.501 7.029-10.606 7.029-16.971s-2.529-12.47-7.029-16.971c-4.501-4.5-10.606-7.029-16.971-7.029h-9.37c1.278-3.62 1.67-7.494 1.142-11.297s-1.961-7.423-4.178-10.558-5.153-5.692-8.562-7.457c-3.41-1.765-7.193-2.687-11.032-2.688h-71.97l1.67-1.76c4.47-4.507 6.972-10.602 6.959-16.949-.013-6.348-2.541-12.432-7.029-16.921-4.515-4.498-10.632-7.019-17.005-7.01-6.374.01-12.483 2.549-16.985 7.06l-7.64 7.77v-148.19h112v152c-.001 1.402.367 2.779 1.066 3.994s1.705 2.225 2.917 2.929 2.588 1.077 3.99 1.082c1.402.004 2.78-.359 3.997-1.055l52.03-29.74 52.03 29.74c1.217.696 2.595 1.059 3.997 1.055 1.402-.005 2.778-.378 3.99-1.082s2.218-1.714 2.917-2.929 1.067-2.592 1.066-3.994v-152h112z"/><path d="m360 344c-2.122 0-4.157.843-5.657 2.343s-2.343 3.535-2.343 5.657v56c0 2.122.843 4.157 2.343 5.657s3.535 2.343 5.657 2.343h104c2.122 0 4.157-.843 5.657-2.343s2.343-3.535 2.343-5.657v-56c0-2.122-.843-4.157-2.343-5.657s-3.535-2.343-5.657-2.343zm96 56h-88v-40h88z"/></g></svg>